<?xml version="1.0" encoding="utf-8"?>
<!-- Generator: Adobe Illustrator 27.9.0, SVG Export Plug-In . SVG Version: 6.00 Build 0)  -->
<svg version="1.1"
	 id="svg2" xmlns:cc="http://creativecommons.org/ns#" xmlns:svg="http://www.w3.org/2000/svg" xmlns:dc="http://purl.org/dc/elements/1.1/" xmlns:rdf="http://www.w3.org/1999/02/22-rdf-syntax-ns#" xmlns:sodipodi="http://sodipodi.sourceforge.net/DTD/sodipodi-0.dtd" xmlns:inkscape="http://www.inkscape.org/namespaces/inkscape" inkscape:export-filename="python-logo-only.png"
	 xmlns="http://www.w3.org/2000/svg" xmlns:xlink="http://www.w3.org/1999/xlink" x="0px" y="0px" viewBox="0 0 112 112"
	 style="enable-background:new 0 0 112 112;" xml:space="preserve">
<style type="text/css">
	.st0{fill:url(#path1948_00000029018526502992160680000008984960959203243912_);}
	.st1{fill:url(#path1950_00000027577347795511126050000008437026891390970557_);}
</style>
<sodipodi:namedview  bordercolor="#666666" borderopacity="1.0" gridtolerance="10.0" guidetolerance="10.0" height="40mm" id="base" inkscape:current-layer="svg2" inkscape:cx="91.558698" inkscape:cy="47.9926" inkscape:deskcolor="#d1d1d1" inkscape:document-units="pt" inkscape:pagecheckerboard="0" inkscape:pageopacity="0.0" inkscape:pageshadow="2" inkscape:showpageshadow="2" inkscape:window-height="2080" inkscape:window-maximized="0" inkscape:window-width="1976" inkscape:window-x="1092" inkscape:window-y="72" inkscape:zoom="2.1461642" objecttolerance="10.0" pagecolor="#ffffff" showgrid="false" units="mm" width="210mm">
	</sodipodi:namedview>
<linearGradient id="path1948_00000011717618700857390240000003649845715982761104_" gradientUnits="userSpaceOnUse" x1="226.74" y1="-184.0965" x2="335.7563" y2="-277.8904" gradientTransform="matrix(0.5625 0 0 -0.568 -129.8603 -101.5559)">
	<stop  offset="0" style="stop-color:#5A9FD4"/>
	<stop  offset="1" style="stop-color:#306998"/>
</linearGradient>
<path id="path1948" style="fill:url(#path1948_00000011717618700857390240000003649845715982761104_);" d="M55.3-0.2
	c-4.6,0-9,0.4-12.8,1.1c-11.3,2-13.4,6.2-13.4,13.9v10.2h26.8v3.4H29.1H19.1c-7.8,0-14.6,4.7-16.8,13.6c-2.5,10.2-2.6,16.6,0,27.2
	c1.9,7.9,6.5,13.6,14.2,13.6h9.2V70.7c0-8.8,7.7-16.7,16.8-16.7h26.8c7.5,0,13.4-6.1,13.4-13.6V14.8c0-7.3-6.1-12.7-13.4-13.9
	C64.7,0.1,59.9-0.2,55.3-0.2z M40.8,8c2.8,0,5,2.3,5,5.1c0,2.8-2.3,5.1-5,5.1c-2.8,0-5-2.3-5-5.1C35.8,10.3,38.1,8,40.8,8z"/>
<linearGradient id="path1950_00000029008283897436573680000005749082396357677210_" gradientUnits="userSpaceOnUse" x1="377.9027" y1="-334.6583" x2="338.9731" y2="-279.5796" gradientTransform="matrix(0.5625 0 0 -0.568 -129.8603 -101.5559)">
	<stop  offset="0" style="stop-color:#FFD43B"/>
	<stop  offset="1" style="stop-color:#FFE873"/>
</linearGradient>
<path id="path1950" style="fill:url(#path1950_00000029008283897436573680000005749082396357677210_);" d="M86.1,28.5v11.9
	c0,9.2-7.8,17-16.8,17H42.5c-7.3,0-13.4,6.3-13.4,13.6v25.5c0,7.3,6.3,11.5,13.4,13.6c8.5,2.5,16.6,2.9,26.8,0
	c6.8-2,13.4-5.9,13.4-13.6V86.3H55.9v-3.4h26.8h13.4c7.8,0,10.7-5.4,13.4-13.6c2.8-8.4,2.7-16.5,0-27.3c-1.9-7.8-5.6-13.6-13.4-13.6
	L86.1,28.5z M71,93.1c2.8,0,5,2.3,5,5.1c0,2.8-2.3,5.1-5,5.1c-2.8,0-5-2.3-5-5.1C66,95.4,68.2,93.1,71,93.1z"/>
</svg>
