<?xml version="1.0" encoding="UTF-8"?>
<svg id="Lager_1" xmlns="http://www.w3.org/2000/svg" version="1.1" viewBox="0 0 82.3 27.9">
  <!-- Generator: Adobe Illustrator 30.0.0, SVG Export Plug-In . SVG Version: 2.1.1 Build 123)  -->
  <defs>
    <style>
      .st0 {
        fill: none;
      }

      .st1 {
        fill: #fff;
      }
    </style>
  </defs>
  <path class="st1" d="M25.9,6.5v.3c0,.5-.2.8-.8.8h-1.3v-1.9h1.3c.5,0,.8.2.8.7ZM29.9,2.5v9.9h-9.9V2.5h9.9ZM27.8,10.9l-1-2.3c.6-.4.9-1.1.9-2.1,0-1.5-.8-2.3-2.4-2.3h-3.2v6.7h1.8v-2h1.2l.8,2h1.9Z"/>
  <g>
    <rect class="st0" x="29.9" y="2.5" width="9.9" height="9.9"/>
    <path class="st1" d="M36.2,7.2v.8c0,.9-.4,1.5-1.4,1.5s-1.4-.6-1.4-1.5v-.8c0-.9.4-1.5,1.4-1.5s1.4.6,1.4,1.5ZM38,7.6c0-2.5-1.4-3.5-3.2-3.5s-3.2,1-3.2,3.5,1.1,3.5,3.2,3.5,3.2-1.2,3.2-3.5Z"/>
  </g>
  <path class="st1" d="M39.8,2.5v9.9h9.9V2.5h-9.9ZM47.8,11h-2.1l-2-2.6h-.2v2.6h-1.8v-6.7h1.8v2.8h.2l2.1-2.8h2.1c0,0-2.5,3.3-2.5,3.3l2.6,3.3h0Z"/>
  <g>
    <rect class="st0" x="49.7" y="2.5" width="9.9" height="9.9"/>
    <path class="st1" d="M54.7,5.8c.2.9.5,1.8.7,2.6h-1.6c.3-.8.5-1.7.7-2.6h0ZM58.2,10.9l-2.3-6.7h-2.3l-2.3,6.7h0c0,0,1.8,0,1.8,0l.4-1.4h2.4l.4,1.4h1.9Z"/>
  </g>
  <g>
    <rect class="st0" x="69.6" y="2.5" width="9.9" height="9.9"/>
    <path class="st1" d="M74.6,5.8c.2.9.5,1.8.7,2.6h-1.6c.3-.8.5-1.7.7-2.6h0ZM78,10.9l-2.3-6.7h-2.3l-2.3,6.7h0c0,0,1.8,0,1.8,0l.4-1.4h2.4l.4,1.4h1.9Z"/>
  </g>
  <g>
    <path class="st1" d="M64.4,5.8h-.9v3.7h.9c.4,0,.8,0,1.1-.3.2-.2.4-.6.4-1.2v-.7c0-.5,0-.9-.3-1.2-.2-.2-.6-.3-1.1-.3Z"/>
    <path class="st1" d="M59.7,2.5v9.9h9.9V2.5h-9.9ZM64.3,11h-2.6v-6.7h2.5c2.5,0,3.3,1.1,3.3,3.3s-.6,3.4-3.3,3.4Z"/>
  </g>
  <path class="st1" d="M29.9,12.4v9.9h9.9v-9.9h-9.9ZM37.2,20.8c-.4.1-1,.3-2,.3-2.3,0-3.2-1.1-3.2-3.5s1.1-3.4,3.4-3.4,1.4.1,1.7.2v1.5h0c-.4,0-.8,0-1.3,0s-1.1.1-1.3.3c-.3.2-.5.8-.5,1.4v.3c0,.6.2,1.2.5,1.4.3.2.8.3,1.3.3s1.2-.1,1.5-.2h0v1.6Z"/>
  <g>
    <rect class="st0" x="39.8" y="12.4" width="9.9" height="9.9"/>
    <path class="st1" d="M47.7,14.1v6.8h-1.8v-2.6h-2.2v2.6h-1.8v-6.8h1.8v2.6h2.2v-2.6h1.8Z"/>
  </g>
  <path class="st1" d="M49.7,12.4v9.9h9.9v-9.9h-9.9ZM57.2,20.9h-4.9v-6.8h4.8v1.5h-3v1.2h2.7v1.3h-2.7v1.3h3.1v1.5Z"/>
  <g>
    <rect class="st0" x="59.7" y="12.4" width="9.9" height="9.9"/>
    <path class="st1" d="M65.1,14.1c.8,0,1.4,0,1.8.2v1.4h0c-.4,0-1,0-1.6,0-1.2,0-1.4.2-1.4.5h0c0,.4,0,.5.8.6l.9.2c1.3.2,1.8.8,1.8,1.9s-.7,2.2-3.2,2.2-1.8-.1-2.1-.2v-1.5h0c.6,0,1.3.1,2,.1,1.1,0,1.4-.2,1.4-.6h0c0-.4,0-.5-1-.7l-.9-.2c-1-.2-1.6-.7-1.6-1.8s.7-2.1,3.2-2.1Z"/>
  </g>
  <path class="st1" d="M69.6,12.4v9.9h9.9v-9.9h-9.9ZM74,21c-1,0-1.8-.1-2.1-.2v-1.5h0c.6,0,1.3.1,2,.1,1.1,0,1.4-.2,1.4-.6h0c0-.4,0-.5-1-.7l-.9-.2c-1-.2-1.6-.7-1.6-1.8s.7-2.1,3.2-2.1,1.4,0,1.8.2v1.4h0c-.4,0-1,0-1.6,0-1.2,0-1.4.2-1.4.5h0c0,.4,0,.5.8.6l.9.2c1.3.2,1.8.8,1.8,1.9s-.7,2.2-3.2,2.2Z"/>
  <path class="st1" d="M14.3,2.5L2.8,22.4h6.2s0,0,0,0l5.2,3s0,0,.1,0,0,0,.1,0l5.2-3s0,0,0,0h6.2S14.3,2.5,14.3,2.5ZM14.3,9c2,0,3.5,1.6,3.5,3.5s-1.6,3.5-3.5,3.5-3.5-1.6-3.5-3.5,1.6-3.5,3.5-3.5ZM14.3,18.9l-4.7-2.7,1.7-1c.7.8,1.8,1.3,3,1.3s2.2-.5,3-1.3l1.7,1-4.6,2.7ZM19.4,22l-4.7,2.7v-5.3l4.7-2.7v5.3Z"/>
</svg>